<svg xmlns="http://www.w3.org/2000/svg" version="1.1" xmlns:xlink="http://www.w3.org/1999/xlink" xmlns:svgjs="http://svgjs.dev/svgjs" width="2000" height="2024" viewBox="0 0 2000 2024"><g transform="matrix(1,0,0,1,1.7678688524587187,0.8194331983804659)"><svg viewBox="0 0 244 247" data-background-color="#ffffff" preserveAspectRatio="xMidYMid meet" height="2024" width="2000" xmlns="http://www.w3.org/2000/svg" xmlns:xlink="http://www.w3.org/1999/xlink"><g id="tight-bounds" transform="matrix(1,0,0,1,-0.21567999999996346,-0.09999999999999432)"><svg viewBox="0 0 244.43135999999996 247.2" height="247.2" width="244.43135999999996"><g><svg></svg></g><g><svg viewBox="0 0 244.43135999999996 247.2" height="247.2" width="244.43135999999996"><g transform="matrix(1,0,0,1,0,110.96061126979782)"><svg viewBox="0 0 244.43135999999996 25.278777460404346" height="25.278777460404346" width="244.43135999999996"><g><svg viewBox="0 0 244.43135999999996 25.278777460404346" height="25.278777460404346" width="244.43135999999996"><g><svg viewBox="0 0 244.43135999999996 25.278777460404346" height="25.278777460404346" width="244.43135999999996"><g id="textblocktransform"><svg viewBox="0 0 244.43135999999996 25.278777460404346" height="25.278777460404346" width="244.43135999999996" id="textblock"><g><svg viewBox="0 0 244.43135999999996 25.278777460404346" height="25.278777460404346" width="244.43135999999996"><g transform="matrix(1,0,0,1,0,0)"><svg width="244.43135999999996" viewBox="4 -35.5 345.94019743919375 35.99" height="25.278777460404346" data-palette-color="url(#b90b2009-dec1-419e-abbb-c4258cf69d5d)"><g transform="matrix(1,0,0,1,0,0)"><g><svg width="21.48013162612915" viewBox="3.16 -36.36 100.01 36.36" height="7.8095703125" data-palette-color="url(#b90b2009-dec1-419e-abbb-c4258cf69d5d)" id="scriptelement" x="328.4600658130646" y="-35.5"></svg></g></g><g class="wordmark-text-0" data-fill-palette-color="primary" id="text-0"><path d="M201.23 0L198.08 0 198.08-24 197.86-22.51 189.73 0 188.07 0 179.87-22.51 179.67-24 179.67 0 176.52 0 176.52-35.01 178.16-35.01 188.78-6.3 188.87-5 188.97-6.3 199.57-35.01 201.23-35.01 201.23 0ZM228.91 0L209.21 0 209.21-35.01 228.91-35.01 228.91-32.01 212.36-32.01 212.36-18.99 225.76-18.99 225.76-15.99 212.36-15.99 212.36-3 228.91-3 228.91 0ZM254.1-9.16L254.1-8.11Q254.1-6.32 253.38-4.76 252.66-3.2 251.45-2.03 250.25-0.85 248.65-0.18 247.05 0.49 245.27 0.49L245.27 0.49 242.75 0.49Q240.97 0.49 239.37-0.18 237.77-0.85 236.56-2.03 235.35-3.2 234.63-4.76 233.91-6.32 233.91-8.11L233.91-8.11 233.91-9.5 237.06-10.01 237.06-8.11Q237.06-6.93 237.54-5.92 238.01-4.91 238.82-4.14 239.63-3.37 240.69-2.93 241.75-2.49 242.92-2.49L242.92-2.49 245.12-2.49Q246.29-2.49 247.34-2.93 248.39-3.37 249.2-4.14 250-4.91 250.48-5.92 250.95-6.93 250.95-8.11L250.95-8.11 250.95-9.16Q250.95-10.96 250.25-12.16 249.54-13.35 248.37-14.2 247.19-15.04 245.72-15.63 244.24-16.21 242.68-16.8 241.12-17.38 239.64-18.09 238.16-18.8 236.99-19.86 235.82-20.92 235.11-22.46 234.4-24 234.4-26.25L234.4-26.25 234.4-26.9Q234.4-28.69 235.07-30.25 235.74-31.81 236.92-32.98 238.09-34.16 239.66-34.83 241.24-35.5 243.02-35.5L243.02-35.5 245.27-35.5Q247.05-35.5 248.61-34.83 250.17-34.16 251.34-32.98 252.52-31.81 253.19-30.25 253.86-28.69 253.86-26.9L253.86-26.9 253.86-26 250.71-25.49 250.71-26.9Q250.71-28.08 250.27-29.09 249.83-30.1 249.07-30.86 248.32-31.62 247.3-32.06 246.29-32.5 245.12-32.5L245.12-32.5 243.17-32.5Q241.99-32.5 240.98-32.06 239.97-31.62 239.2-30.86 238.43-30.1 237.99-29.09 237.55-28.08 237.55-26.9L237.55-26.9 237.55-26.25Q237.55-24.56 238.26-23.41 238.97-22.27 240.14-21.45 241.31-20.63 242.79-20.03 244.26-19.43 245.83-18.81 247.39-18.19 248.87-17.44 250.34-16.7 251.52-15.61 252.69-14.53 253.4-12.96 254.1-11.4 254.1-9.16L254.1-9.16ZM281.86 0L277.95 0 264.77-17.5 277.95-35.01 281.86-35.01 268.41-17.5 281.86 0ZM264.01 0L260.86 0 260.86-35.01 264.01-35.01 264.01 0ZM306.56 0L303.41 0 303.41-15.99 290.01-15.99 290.01 0 286.86 0 286.86-35.01 290.01-35.01 290.01-18.99 303.41-18.99 303.41-35.01 306.56-35.01 306.56 0ZM317.72 0L314.57 0 314.57-35.01 317.72-35.01 317.72 0Z" fill="#000000" data-fill-palette-color="secondary"></path></g></svg></g></svg></g></svg></g></svg></g><g></g></svg></g></svg></g><path d="M0 104.961L0 1 244.431 1 244.431 104.961 242.152 104.961 242.152 3.28 2.28 3.28 2.28 104.961 0 104.961M0 142.239L0 246.2 244.431 246.2 244.431 142.239 242.152 142.239 242.152 243.92 2.28 243.92 2.28 142.239 0 142.239" fill="#000000" stroke="transparent" data-fill-palette-color="tertiary"></path></svg></g><defs></defs><mask id="4d10f3f0-f3b5-49df-9595-ba14344aa81c"><g id="SvgjsG2507"><svg viewBox="0 0 244.43135999999996 247.2" height="247.2" width="244.43135999999996"><g><svg></svg></g><g><svg viewBox="0 0 244.43135999999996 247.2" height="247.2" width="244.43135999999996"><g transform="matrix(1,0,0,1,0,110.96061126979782)"><svg viewBox="0 0 244.43135999999996 25.278777460404346" height="25.278777460404346" width="244.43135999999996"><g><svg viewBox="0 0 244.43135999999996 25.278777460404346" height="25.278777460404346" width="244.43135999999996"><g><svg viewBox="0 0 244.43135999999996 25.278777460404346" height="25.278777460404346" width="244.43135999999996"><g id="SvgjsG2506"><svg viewBox="0 0 244.43135999999996 25.278777460404346" height="25.278777460404346" width="244.43135999999996" id="SvgjsSvg2505"><g><svg viewBox="0 0 244.43135999999996 25.278777460404346" height="25.278777460404346" width="244.43135999999996"><g transform="matrix(1,0,0,1,0,0)"><svg width="244.43135999999996" viewBox="4 -35.5 345.94019743919375 35.99" height="25.278777460404346" data-palette-color="url(#b90b2009-dec1-419e-abbb-c4258cf69d5d)"><g transform="matrix(1,0,0,1,0,0)"><g><svg width="21.48013162612915" viewBox="3.16 -36.36 100.01 36.36" height="7.8095703125" data-palette-color="url(#b90b2009-dec1-419e-abbb-c4258cf69d5d)" id="SvgjsSvg2504" x="328.4600658130646" y="-35.5"><path d="M16.05 0L16.05 0 3.16 0 3.16-36.36 16.16-36.36Q21.64-36.36 25.6-34.19 29.56-32.01 31.7-27.95 33.84-23.88 33.84-18.22L33.84-18.22Q33.84-12.54 31.7-8.45 29.56-4.37 25.58-2.18 21.59 0 16.05 0ZM10.85-29.78L10.85-6.59 15.73-6.59Q19.14-6.59 21.48-7.8 23.81-9.02 24.99-11.59 26.17-14.15 26.17-18.22L26.17-18.22Q26.17-22.25 24.99-24.8 23.81-27.36 21.48-28.57 19.16-29.78 15.75-29.78L15.75-29.78 10.85-29.78ZM64.1 0L39.52 0 39.52-36.36 64.02-36.36 64.02-30.02 47.21-30.02 47.21-21.36 62.76-21.36 62.76-15.02 47.21-15.02 47.21-6.34 64.1-6.34 64.1 0ZM68.18-36.36L76.72-36.36 85.51-8.74 85.84-8.74 94.65-36.36 103.17-36.36 90.64 0 80.73 0 68.18-36.36Z" opacity="1" transform="matrix(1,0,0,1,0,0)" fill="white" class="undefined-123" id="SvgjsPath2503"></path></svg></g></g><g class="wordmark-text-0" data-fill-palette-color="primary" id="SvgjsG2502"><path d="M23.71 0L22.05 0 7.45-25.49 7.15-27 7.15 0 4 0 4-35.01 5.64-35.01 20.24-9.5 20.56-8.01 20.56-35.01 23.71-35.01 23.71 0ZM34.86 0L31.71 0 31.71-35.01 34.86-35.01 34.86 0ZM63.86 0L59.96 0 46.77-17.5 59.96-35.01 63.86-35.01 50.41-17.5 63.86 0ZM46.02 0L42.87 0 42.87-35.01 46.02-35.01 46.02 0ZM88.05-8.11L88.05-8.11Q88.05-6.32 87.38-4.76 86.71-3.2 85.54-2.03 84.37-0.85 82.81-0.18 81.24 0.49 79.46 0.49L79.46 0.49 76.97 0.49Q75.19 0.49 73.61-0.18 72.04-0.85 70.87-2.03 69.69-3.2 69.02-4.76 68.35-6.32 68.35-8.11L68.35-8.11 68.35-26.9Q68.35-28.69 69.02-30.25 69.69-31.81 70.87-32.98 72.04-34.16 73.61-34.83 75.19-35.5 76.97-35.5L76.97-35.5 79.46-35.5Q81.24-35.5 82.81-34.83 84.37-34.16 85.54-32.98 86.71-31.81 87.38-30.25 88.05-28.69 88.05-26.9L88.05-26.9 88.05-8.11ZM84.9-8.11L84.9-26.9Q84.9-28.08 84.47-29.09 84.03-30.1 83.27-30.86 82.51-31.62 81.5-32.06 80.49-32.5 79.31-32.5L79.31-32.5 77.12-32.5Q75.94-32.5 74.93-32.06 73.92-31.62 73.15-30.86 72.38-30.1 71.94-29.09 71.5-28.08 71.5-26.9L71.5-26.9 71.5-8.11Q71.5-6.93 71.94-5.92 72.38-4.91 73.15-4.14 73.92-3.37 74.93-2.93 75.94-2.49 77.12-2.49L77.12-2.49 79.31-2.49Q80.49-2.49 81.5-2.93 82.51-3.37 83.27-4.14 84.03-4.91 84.47-5.92 84.9-6.93 84.9-8.11L84.9-8.11ZM111.61 0L95.06 0 95.06-35.01 98.21-35.01 98.21-3 111.61-3 111.61 0ZM135.8-8.11L135.8-8.11Q135.8-6.32 135.13-4.76 134.46-3.2 133.29-2.03 132.12-0.85 130.55-0.18 128.99 0.49 127.21 0.49L127.21 0.49 124.72 0.49Q122.94 0.49 121.36-0.18 119.79-0.85 118.62-2.03 117.44-3.2 116.77-4.76 116.1-6.32 116.1-8.11L116.1-8.11 116.1-26.9Q116.1-28.69 116.77-30.25 117.44-31.81 118.62-32.98 119.79-34.16 121.36-34.83 122.94-35.5 124.72-35.5L124.72-35.5 127.21-35.5Q128.99-35.5 130.55-34.83 132.12-34.16 133.29-32.98 134.46-31.81 135.13-30.25 135.8-28.69 135.8-26.9L135.8-26.9 135.8-8.11ZM132.65-8.11L132.65-26.9Q132.65-28.08 132.21-29.09 131.77-30.1 131.02-30.86 130.26-31.62 129.25-32.06 128.23-32.5 127.06-32.5L127.06-32.5 124.87-32.5Q123.69-32.5 122.68-32.06 121.67-31.62 120.9-30.86 120.13-30.1 119.69-29.09 119.25-28.08 119.25-26.9L119.25-26.9 119.25-8.11Q119.25-6.93 119.69-5.92 120.13-4.91 120.9-4.14 121.67-3.37 122.68-2.93 123.69-2.49 124.87-2.49L124.87-2.49 127.06-2.49Q128.23-2.49 129.25-2.93 130.26-3.37 131.02-4.14 131.77-4.91 132.21-5.92 132.65-6.93 132.65-8.11L132.65-8.11ZM161.02 0L141.32 0 141.32-1.49 156.92-32.01 141.81-32.01 141.81-35.01 161.02-35.01 161.02-33.5 145.42-3 161.02-3 161.02 0Z" fill="white"></path><path d="M201.23 0L198.08 0 198.08-24 197.86-22.51 189.73 0 188.07 0 179.87-22.51 179.67-24 179.67 0 176.52 0 176.52-35.01 178.16-35.01 188.78-6.3 188.87-5 188.97-6.3 199.57-35.01 201.23-35.01 201.23 0ZM228.91 0L209.21 0 209.21-35.01 228.91-35.01 228.91-32.01 212.36-32.01 212.36-18.99 225.76-18.99 225.76-15.99 212.36-15.99 212.36-3 228.91-3 228.91 0ZM254.1-9.16L254.1-8.11Q254.1-6.32 253.38-4.76 252.66-3.2 251.45-2.03 250.25-0.85 248.65-0.18 247.05 0.49 245.27 0.49L245.27 0.49 242.75 0.49Q240.97 0.49 239.37-0.18 237.77-0.85 236.56-2.03 235.35-3.2 234.63-4.76 233.91-6.32 233.91-8.11L233.91-8.11 233.91-9.5 237.06-10.01 237.06-8.11Q237.06-6.93 237.54-5.92 238.01-4.91 238.82-4.14 239.63-3.37 240.69-2.93 241.75-2.49 242.92-2.49L242.92-2.49 245.12-2.49Q246.29-2.49 247.34-2.93 248.39-3.37 249.2-4.14 250-4.91 250.48-5.92 250.95-6.93 250.95-8.11L250.95-8.11 250.95-9.16Q250.95-10.96 250.25-12.16 249.54-13.35 248.37-14.2 247.19-15.04 245.72-15.63 244.24-16.21 242.68-16.8 241.12-17.38 239.64-18.09 238.16-18.8 236.99-19.86 235.82-20.92 235.11-22.46 234.4-24 234.4-26.25L234.4-26.25 234.4-26.9Q234.4-28.69 235.07-30.25 235.74-31.81 236.92-32.98 238.09-34.16 239.66-34.83 241.24-35.5 243.02-35.5L243.02-35.5 245.27-35.5Q247.05-35.5 248.61-34.83 250.17-34.16 251.34-32.98 252.52-31.81 253.19-30.25 253.86-28.69 253.86-26.9L253.86-26.9 253.86-26 250.71-25.49 250.71-26.9Q250.71-28.08 250.27-29.09 249.83-30.1 249.07-30.86 248.32-31.62 247.3-32.06 246.29-32.5 245.12-32.5L245.12-32.5 243.17-32.5Q241.99-32.5 240.98-32.06 239.97-31.62 239.2-30.86 238.43-30.1 237.99-29.09 237.55-28.08 237.55-26.9L237.55-26.9 237.55-26.25Q237.55-24.56 238.26-23.41 238.97-22.27 240.14-21.45 241.31-20.63 242.79-20.03 244.26-19.43 245.83-18.81 247.39-18.19 248.87-17.44 250.34-16.7 251.52-15.61 252.69-14.53 253.4-12.96 254.1-11.4 254.1-9.16L254.1-9.16ZM281.86 0L277.95 0 264.77-17.5 277.95-35.01 281.86-35.01 268.41-17.5 281.86 0ZM264.01 0L260.86 0 260.86-35.01 264.01-35.01 264.01 0ZM306.56 0L303.41 0 303.41-15.99 290.01-15.99 290.01 0 286.86 0 286.86-35.01 290.01-35.01 290.01-18.99 303.41-18.99 303.41-35.01 306.56-35.01 306.56 0ZM317.72 0L314.57 0 314.57-35.01 317.72-35.01 317.72 0Z" fill="black"></path></g></svg></g></svg></g></svg></g></svg></g><g></g></svg></g></svg></g><path d="M0 104.961L0 1 244.431 1 244.431 104.961 242.152 104.961 242.152 3.28 2.28 3.28 2.28 104.961 0 104.961M0 142.239L0 246.2 244.431 246.2 244.431 142.239 242.152 142.239 242.152 243.92 2.28 243.92 2.28 142.239 0 142.239" fill="black" stroke="transparent"></path></svg></g><defs><mask></mask></defs></svg><rect width="244.43135999999996" height="247.2" fill="black" stroke="none" visibility="hidden"></rect></g></mask><linearGradient x1="0" x2="1" y1="0.5" y2="0.5" id="b90b2009-dec1-419e-abbb-c4258cf69d5d"><stop stop-color="#f00b51" offset="0"></stop><stop stop-color="#730062" offset="1"></stop></linearGradient><rect width="244.43135999999996" height="247.2" fill="url(#b90b2009-dec1-419e-abbb-c4258cf69d5d)" mask="url(#4d10f3f0-f3b5-49df-9595-ba14344aa81c)" data-fill-palette-color="primary"></rect></svg><rect width="244.43135999999996" height="247.2" fill="none" stroke="none" visibility="hidden"></rect></g></svg></g></svg>